<svg xmlns="http://www.w3.org/2000/svg" width="300" height="61.672" viewBox="0 0 300 61.672">
  <g id="Group_66" data-name="Group 66" transform="translate(-3301.983 -20125.295)">
    <g id="Group_65" data-name="Group 65" transform="translate(3376.262 20137.145)">
      <path id="Path_1160" data-name="Path 1160" d="M11.864-371.756H3.5v-4.394H25.085v4.394H16.721v22.9H11.864ZM27.4-356.492a4.7,4.7,0,0,0,1.619,3.238A5.066,5.066,0,0,0,32.37-352.1a5.52,5.52,0,0,0,2.91-.713,8.068,8.068,0,0,0,2.062-1.792l3.315,2.505a9.394,9.394,0,0,1-3.623,2.852,10.674,10.674,0,0,1-4.2.848,11.1,11.1,0,0,1-3.932-.694,9.43,9.43,0,0,1-3.2-1.966,9.328,9.328,0,0,1-2.139-3.064,9.785,9.785,0,0,1-.79-3.989,9.785,9.785,0,0,1,.79-3.989,9.328,9.328,0,0,1,2.139-3.064,9.429,9.429,0,0,1,3.2-1.966,11.1,11.1,0,0,1,3.932-.694,8.988,8.988,0,0,1,3.527.675A7.564,7.564,0,0,1,39.1-365.2a8.991,8.991,0,0,1,1.773,3.141,13.327,13.327,0,0,1,.636,4.3v1.272Zm9.482-3.469a4.356,4.356,0,0,0-1.272-3.219,4.771,4.771,0,0,0-3.431-1.176,4.494,4.494,0,0,0-3.3,1.195,5.332,5.332,0,0,0-1.484,3.2Zm21.585-1.85a7.381,7.381,0,0,0-1.7-1.349,3.641,3.641,0,0,0-1.812-.5,5.367,5.367,0,0,0-2.274.463,5.376,5.376,0,0,0-1.715,1.233,5.224,5.224,0,0,0-1.079,1.773,6.018,6.018,0,0,0-.366,2.081,6.018,6.018,0,0,0,.366,2.081,5.223,5.223,0,0,0,1.079,1.773,5.376,5.376,0,0,0,1.715,1.233,5.367,5.367,0,0,0,2.274.463,4.578,4.578,0,0,0,2-.443,4.362,4.362,0,0,0,1.58-1.291l3.084,3.315a7.121,7.121,0,0,1-1.6,1.195,10.907,10.907,0,0,1-1.831.809,11.174,11.174,0,0,1-1.773.443,9.513,9.513,0,0,1-1.465.135,11.1,11.1,0,0,1-3.932-.694,9.43,9.43,0,0,1-3.2-1.966,9.328,9.328,0,0,1-2.139-3.064,9.785,9.785,0,0,1-.79-3.989,9.785,9.785,0,0,1,.79-3.989,9.328,9.328,0,0,1,2.139-3.064,9.429,9.429,0,0,1,3.2-1.966,11.1,11.1,0,0,1,3.932-.694,10.066,10.066,0,0,1,3.565.675,8.114,8.114,0,0,1,3.141,2.139Zm10.561-2.968H69.1a5.4,5.4,0,0,1,1.908-2.1,6.08,6.08,0,0,1,3.527-.944,7.246,7.246,0,0,1,3.141.617,5.938,5.938,0,0,1,2.1,1.619,6.128,6.128,0,0,1,1.156,2.313,10.651,10.651,0,0,1,.347,2.737v11.679H76.659v-9.367q0-.771-.077-1.715a6.158,6.158,0,0,0-.4-1.773,3.321,3.321,0,0,0-1.021-1.388,2.927,2.927,0,0,0-1.889-.559,4.417,4.417,0,0,0-1.947.385,3.741,3.741,0,0,0-1.311,1.041,4.139,4.139,0,0,0-.752,1.5,6.709,6.709,0,0,0-.231,1.773v10.1H64.4V-378h4.625Zm17.5-2.583h4.394v2.968H91a6.489,6.489,0,0,1,2-2.409,5.929,5.929,0,0,1,3.662-1.021,7.246,7.246,0,0,1,3.141.617,5.938,5.938,0,0,1,2.1,1.619,6.128,6.128,0,0,1,1.156,2.313,10.651,10.651,0,0,1,.347,2.737v11.679H98.784v-9.367q0-.771-.077-1.715a6.157,6.157,0,0,0-.4-1.773,3.321,3.321,0,0,0-1.021-1.388,2.927,2.927,0,0,0-1.889-.559,4.417,4.417,0,0,0-1.947.385,3.741,3.741,0,0,0-1.311,1.041,4.139,4.139,0,0,0-.752,1.5,6.709,6.709,0,0,0-.231,1.773v10.1H86.527Zm21.2,9.251a9.785,9.785,0,0,1,.79-3.989,9.328,9.328,0,0,1,2.139-3.064,9.429,9.429,0,0,1,3.2-1.966,11.1,11.1,0,0,1,3.932-.694,11.1,11.1,0,0,1,3.932.694,9.429,9.429,0,0,1,3.2,1.966,9.328,9.328,0,0,1,2.139,3.064,9.785,9.785,0,0,1,.79,3.989,9.785,9.785,0,0,1-.79,3.989,9.328,9.328,0,0,1-2.139,3.064,9.43,9.43,0,0,1-3.2,1.966,11.1,11.1,0,0,1-3.932.694,11.1,11.1,0,0,1-3.932-.694,9.43,9.43,0,0,1-3.2-1.966,9.328,9.328,0,0,1-2.139-3.064A9.785,9.785,0,0,1,107.727-358.111Zm4.625,0a6.018,6.018,0,0,0,.366,2.081,5.223,5.223,0,0,0,1.079,1.773,5.376,5.376,0,0,0,1.715,1.233,5.367,5.367,0,0,0,2.274.463,5.367,5.367,0,0,0,2.274-.463,5.376,5.376,0,0,0,1.715-1.233,5.223,5.223,0,0,0,1.079-1.773,6.018,6.018,0,0,0,.366-2.081,6.018,6.018,0,0,0-.366-2.081,5.224,5.224,0,0,0-1.079-1.773,5.377,5.377,0,0,0-1.715-1.233,5.367,5.367,0,0,0-2.274-.463,5.367,5.367,0,0,0-2.274.463,5.376,5.376,0,0,0-1.715,1.233,5.224,5.224,0,0,0-1.079,1.773A6.018,6.018,0,0,0,112.352-358.111Z" transform="translate(-3.5 378)" fill="#ef7717"/>
      <path id="Path_1159" data-name="Path 1159" d="M1669.225-356.447a4.48,4.48,0,0,0-2.062-1.638,7.2,7.2,0,0,0-2.717-.52,6.887,6.887,0,0,0-1.638.193,4.448,4.448,0,0,0-1.426.617,3.222,3.222,0,0,0-1.021,1.1,3.171,3.171,0,0,0-.385,1.6,2.5,2.5,0,0,0,.964,2.12,9.476,9.476,0,0,0,2.39,1.272q1.426.54,3.122,1.041a12.693,12.693,0,0,1,3.122,1.388,7.721,7.721,0,0,1,2.39,2.351,6.988,6.988,0,0,1,.964,3.893,8.561,8.561,0,0,1-.809,3.835,7.816,7.816,0,0,1-2.178,2.717,9.417,9.417,0,0,1-3.18,1.619,13.3,13.3,0,0,1-3.816.54,14.319,14.319,0,0,1-4.9-.848,9.431,9.431,0,0,1-4.047-2.852l3.662-3.546a6.124,6.124,0,0,0,2.332,2.1,6.55,6.55,0,0,0,3.064.752,6.421,6.421,0,0,0,1.7-.231,5.245,5.245,0,0,0,1.542-.694,3.618,3.618,0,0,0,1.118-1.176,3.143,3.143,0,0,0,.424-1.638,2.852,2.852,0,0,0-.964-2.313,8.513,8.513,0,0,0-2.39-1.368q-1.426-.559-3.122-1.06a13.147,13.147,0,0,1-3.122-1.368,7.594,7.594,0,0,1-2.39-2.313,6.89,6.89,0,0,1-.964-3.874,7.351,7.351,0,0,1,.867-3.662,7.931,7.931,0,0,1,2.274-2.563,9.926,9.926,0,0,1,3.219-1.523,13.817,13.817,0,0,1,3.7-.5,13.491,13.491,0,0,1,4.182.655,9.7,9.7,0,0,1,3.643,2.159Zm8.326,2.929h4.394v2.775h.077a5.949,5.949,0,0,1,2.7-2.467,8.744,8.744,0,0,1,3.662-.771,9.323,9.323,0,0,1,3.816.752,8.545,8.545,0,0,1,2.891,2.062,8.816,8.816,0,0,1,1.812,3.084,11.538,11.538,0,0,1,.617,3.816,10.921,10.921,0,0,1-.655,3.816,9.489,9.489,0,0,1-1.831,3.084,8.44,8.44,0,0,1-2.833,2.062,8.67,8.67,0,0,1-3.623.752,8.93,8.93,0,0,1-2.313-.27,7.968,7.968,0,0,1-1.773-.694,7.091,7.091,0,0,1-1.311-.906,6.588,6.588,0,0,1-.887-.944h-.116v11.14h-4.625Zm15.341,9.251a6.02,6.02,0,0,0-.366-2.081,5.223,5.223,0,0,0-1.079-1.773,5.376,5.376,0,0,0-1.715-1.233,5.368,5.368,0,0,0-2.274-.463,5.368,5.368,0,0,0-2.274.463,5.377,5.377,0,0,0-1.715,1.233,5.225,5.225,0,0,0-1.079,1.773,6.018,6.018,0,0,0-.366,2.081,6.018,6.018,0,0,0,.366,2.081,5.224,5.224,0,0,0,1.079,1.773,5.377,5.377,0,0,0,1.715,1.233,5.368,5.368,0,0,0,2.274.463,5.368,5.368,0,0,0,2.274-.463,5.375,5.375,0,0,0,1.715-1.233,5.223,5.223,0,0,0,1.079-1.773A6.02,6.02,0,0,0,1692.892-344.267Zm25.825,9.251h-4.394v-2.968h-.077a6.488,6.488,0,0,1-2,2.409,5.929,5.929,0,0,1-3.662,1.021,7.448,7.448,0,0,1-3.141-.6,5.659,5.659,0,0,1-2.1-1.619,6.31,6.31,0,0,1-1.156-2.332,10.654,10.654,0,0,1-.347-2.737v-11.679h4.625v9.367q0,.771.077,1.715a6.159,6.159,0,0,0,.4,1.773,3.39,3.39,0,0,0,1,1.388,2.912,2.912,0,0,0,1.908.559,4.417,4.417,0,0,0,1.947-.385,3.74,3.74,0,0,0,1.31-1.041,4.139,4.139,0,0,0,.752-1.5,6.71,6.71,0,0,0,.231-1.773v-10.1h4.625Zm5.242-18.5h4.625v2.929h.077a5.812,5.812,0,0,1,2.2-2.505,6.076,6.076,0,0,1,3.276-.887,4.421,4.421,0,0,1,.829.077q.4.077.829.193v4.471q-.578-.154-1.137-.251a6.458,6.458,0,0,0-1.1-.1,4.969,4.969,0,0,0-2.6.6,4.741,4.741,0,0,0-1.5,1.368,4.548,4.548,0,0,0-.694,1.542,5.806,5.806,0,0,0-.173,1.156v9.906h-4.625Zm24.862,5.127a4.233,4.233,0,0,0-3.623-1.889,3.874,3.874,0,0,0-1.812.463,1.572,1.572,0,0,0-.887,1.5,1.3,1.3,0,0,0,.732,1.233,8.079,8.079,0,0,0,1.85.655q1.118.27,2.409.559a9.476,9.476,0,0,1,2.409.887,5.272,5.272,0,0,1,1.85,1.638,4.883,4.883,0,0,1,.732,2.852,5.16,5.16,0,0,1-.713,2.795,5.6,5.6,0,0,1-1.85,1.831,8.212,8.212,0,0,1-2.563,1,13.461,13.461,0,0,1-2.852.308,12.252,12.252,0,0,1-3.97-.617,7.54,7.54,0,0,1-3.238-2.236l3.084-2.891a8.685,8.685,0,0,0,1.908,1.638,4.613,4.613,0,0,0,2.486.636,4.965,4.965,0,0,0,1.041-.116,3.382,3.382,0,0,0,1-.385,2.385,2.385,0,0,0,.752-.675,1.582,1.582,0,0,0,.289-.944,1.568,1.568,0,0,0-.732-1.426,6.525,6.525,0,0,0-1.85-.752q-1.118-.289-2.409-.54a9.333,9.333,0,0,1-2.409-.809,5.062,5.062,0,0,1-1.85-1.561,4.625,4.625,0,0,1-.732-2.775,5.4,5.4,0,0,1,.636-2.679,5.588,5.588,0,0,1,1.677-1.869,7.244,7.244,0,0,1,2.39-1.079,10.947,10.947,0,0,1,2.737-.347,10.987,10.987,0,0,1,3.662.636,5.982,5.982,0,0,1,2.929,2.178Z" transform="translate(-1526.762 364.156)" fill="#d24e00"/>
    </g>
    <g id="Group_64" data-name="Group 64" transform="translate(3301.983 20125.295)">
      <g id="Logo_orange" transform="translate(0 0)">
        <g id="Group_19" data-name="Group 19" transform="translate(12.287 3.862)">
          <g id="Group_18" data-name="Group 18" transform="translate(0 0)">
            <path id="Path_1139" data-name="Path 1139" d="M148.188,113.321a.069.069,0,0,1-.028-.017.069.069,0,0,0-.028-.017l-.05-.039a25.1,25.1,0,0,0-19.1-4.394,23.9,23.9,0,0,0-16.355,10.236,25.1,25.1,0,0,0-3.36,6.688,24.314,24.314,0,0,0-.636,12.187,26.174,26.174,0,0,0,29.8,20.821,24.31,24.31,0,0,0,11.159-4.731.342.342,0,0,0,.061-.039q.039-.028.083-.055a25.282,25.282,0,0,0,5.046-5.417,23.872,23.872,0,0,0,3.991-18.87,25.08,25.08,0,0,0-10.579-16.355m-1.514,1.94q.066.044.127.088l-.028-.022a22.725,22.725,0,0,1,9.584,14.807,21.513,21.513,0,0,1-3.593,17.007,22.778,22.778,0,0,1-4.494,4.836.98.98,0,0,0-.127.088,22.047,22.047,0,0,1-10.12,4.3,23.71,23.71,0,0,1-26.978-18.859,21.967,21.967,0,0,1,.564-10.977,22.538,22.538,0,0,1,3.034-6.036,21.514,21.514,0,0,1,14.73-9.219A22.773,22.773,0,0,1,146.673,115.261Z" transform="translate(-108.145 -108.483)" fill="#d24e00"/>
          </g>
        </g>
        <g id="Group_21" data-name="Group 21" transform="matrix(0.82, 0.573, -0.573, 0.82, 13.902, 10.394)">
          <g id="Group_20" data-name="Group 20" transform="translate(0 0)">
            <path id="Path_1140" data-name="Path 1140" d="M8.57,0A8.247,8.247,0,0,0,2.5,2.512,8.194,8.194,0,0,0,0,8.59a8.224,8.224,0,0,0,2.5,6.068v.01A8.247,8.247,0,0,0,8.57,17.181a8.313,8.313,0,0,0,6.089-2.512A8.328,8.328,0,0,0,17.181,8.59a8.368,8.368,0,0,0-2.522-6.079h-.01A8.28,8.28,0,0,0,8.57,0Z" fill="#ffa447"/>
          </g>
        </g>
        <g id="Group_23" data-name="Group 23" transform="matrix(0.82, 0.573, -0.573, 0.82, 14.36, 13.648)">
          <g id="Group_22" data-name="Group 22" transform="translate(0 0)">
            <path id="Path_1141" data-name="Path 1141" d="M10.58,1.822h-.007A5.942,5.942,0,0,0,6.194,0,5.95,5.95,0,0,0,1.808,1.822,5.929,5.929,0,0,0,0,6.2,5.943,5.943,0,0,0,1.808,10.58v.014A5.972,5.972,0,0,0,6.194,12.4a5.987,5.987,0,0,0,4.386-1.808A6,6,0,0,0,12.4,6.2,6.012,6.012,0,0,0,10.58,1.822Z" fill="#fff"/>
          </g>
        </g>
        <g id="Group_25" data-name="Group 25" transform="translate(15.985 5.337) rotate(34.947)">
          <g id="Group_24" data-name="Group 24" transform="translate(0 0)">
            <path id="Path_1142" data-name="Path 1142" d="M23.816,4.073h-.033A13.412,13.412,0,0,0,13.928,0,13.4,13.4,0,0,0,4.063,4.073,13.31,13.31,0,0,0,0,13.944a13.345,13.345,0,0,0,4.062,9.871v.017a13.4,13.4,0,0,0,9.865,4.073,13.521,13.521,0,0,0,9.888-4.073,13.544,13.544,0,0,0,4.1-9.888A13.6,13.6,0,0,0,23.816,4.073Z" fill="#d24e00"/>
          </g>
        </g>
        <g id="Group_27" data-name="Group 27" transform="matrix(0.82, 0.573, -0.573, 0.82, 47.955, 30.059)">
          <g id="Group_26" data-name="Group 26" transform="translate(0 0)">
            <path id="Path_1143" data-name="Path 1143" d="M19.373,3.314h-.021A10.935,10.935,0,0,0,11.323,0,10.9,10.9,0,0,0,3.307,3.314,10.835,10.835,0,0,0,0,11.343a10.833,10.833,0,0,0,3.307,8.016v.021a10.893,10.893,0,0,0,8.016,3.32,10.992,10.992,0,0,0,8.05-3.32,11,11,0,0,0,3.334-8.036A11.074,11.074,0,0,0,19.373,3.314Z" fill="#d24e00"/>
          </g>
        </g>
        <g id="Group_31" data-name="Group 31" transform="matrix(0.82, 0.573, -0.573, 0.82, 16.615, 8.952)">
          <g id="Group_30" data-name="Group 30" transform="translate(0 0)">
            <path id="Path_1145" data-name="Path 1145" d="M19.372,3.316h-.02A10.934,10.934,0,0,0,11.324,0,10.9,10.9,0,0,0,3.306,3.316,10.818,10.818,0,0,0,0,11.344a10.827,10.827,0,0,0,3.306,8.018v.02A10.9,10.9,0,0,0,11.324,22.7a11,11,0,0,0,8.048-3.316,11,11,0,0,0,3.336-8.038A11.08,11.08,0,0,0,19.372,3.316Z" fill="#ef7717"/>
          </g>
        </g>
        <g id="Group_33" data-name="Group 33" transform="translate(18.752 9.712)">
          <g id="Group_32" data-name="Group 32" transform="translate(0 0)">
            <path id="Path_1146" data-name="Path 1146" d="M191.172,161.495a1.175,1.175,0,0,0,.177-.912,1.188,1.188,0,0,0-.52-.768,19.191,19.191,0,0,0-14.166-3.034h-.006a18.35,18.35,0,0,0-12.563,7.882,19.323,19.323,0,0,0-2.587,5.124,0,0,0,0,0-.006.006q-.155.459-.265.929a1.215,1.215,0,0,0,.884,1.47,1.2,1.2,0,0,0,.923-.144,1.172,1.172,0,0,0,.553-.746,7.227,7.227,0,0,1,.216-.746v-.011a17.077,17.077,0,0,1,2.277-4.488,16.032,16.032,0,0,1,10.966-6.876,16.839,16.839,0,0,1,12.43,2.664,1.186,1.186,0,0,0,.917.177A1.2,1.2,0,0,0,191.172,161.495Z" transform="translate(-161.198 -156.494)" fill="#ffa447"/>
          </g>
        </g>
        <g id="Group_35" data-name="Group 35" transform="translate(15.291 6.84)">
          <g id="Group_34" data-name="Group 34" transform="translate(0 0)">
            <path id="Path_1147" data-name="Path 1147" d="M168.638,138.022a1.179,1.179,0,0,0-.475-.8q-.072-.055-.149-.105l.022.017a22.136,22.136,0,0,0-16.858-3.88,21.125,21.125,0,0,0-14.431,9.037,21.846,21.846,0,0,0-3.222,6.754,21.545,21.545,0,0,0-.3,9.894,23.074,23.074,0,0,0,26.287,18.372,21.768,21.768,0,0,0,9.147-3.653,1.874,1.874,0,0,0,.254-.2,1.185,1.185,0,0,0,.354-.862,1.218,1.218,0,0,0-1.962-.962.036.036,0,0,0-.017.017,19.4,19.4,0,0,1-8.175,3.267,20.649,20.649,0,0,1-23.5-16.427,19.25,19.25,0,0,1,.254-8.794,19.6,19.6,0,0,1,2.874-6.008,18.722,18.722,0,0,1,12.828-8.031,19.809,19.809,0,0,1,15.072,3.477.032.032,0,0,1,.022.011l.039.028a1.166,1.166,0,0,0,.9.232,1.179,1.179,0,0,0,.8-.475A1.166,1.166,0,0,0,168.638,138.022Z" transform="translate(-132.793 -132.924)" fill="#ef7717"/>
          </g>
        </g>
        <g id="Group_29" data-name="Group 29" transform="matrix(0.82, 0.573, -0.573, 0.82, 48.632, 33.879)">
          <g id="Group_28" data-name="Group 28" transform="translate(0 0)">
            <path id="Path_1144" data-name="Path 1144" d="M14.664,2.509H14.65A8.277,8.277,0,0,0,8.573,0,8.254,8.254,0,0,0,2.5,2.509,8.205,8.205,0,0,0,0,8.593a8.21,8.21,0,0,0,2.5,6.063v.014a8.254,8.254,0,0,0,6.07,2.509,8.322,8.322,0,0,0,6.091-2.509A8.339,8.339,0,0,0,17.18,8.593,8.36,8.36,0,0,0,14.664,2.509Z" fill="#ef7717"/>
          </g>
        </g>
        <g id="Group_37" data-name="Group 37" transform="translate(17.3 12.776) rotate(34.947)">
          <g id="Group_36" data-name="Group 36" transform="translate(0 0)">
            <path id="Path_1148" data-name="Path 1148" d="M14.657,2.515h-.011A8.271,8.271,0,0,0,8.567,0,8.246,8.246,0,0,0,2.5,2.515,8.185,8.185,0,0,0,0,8.594a8.218,8.218,0,0,0,2.5,6.069v.006a8.246,8.246,0,0,0,6.069,2.515,8.307,8.307,0,0,0,6.091-2.515,8.314,8.314,0,0,0,2.52-6.074A8.376,8.376,0,0,0,14.657,2.515Z" fill="#ffa447"/>
          </g>
        </g>
        <g id="Group_39" data-name="Group 39" transform="matrix(0.82, 0.573, -0.573, 0.82, 17.765, 16.025)">
          <g id="Group_38" data-name="Group 38" transform="translate(0 0)">
            <path id="Path_1149" data-name="Path 1149" d="M10.58,1.822h-.007A5.942,5.942,0,0,0,6.194,0,5.95,5.95,0,0,0,1.808,1.822,5.929,5.929,0,0,0,0,6.2,5.943,5.943,0,0,0,1.808,10.58v.014A5.972,5.972,0,0,0,6.194,12.4a5.987,5.987,0,0,0,4.386-1.808A6,6,0,0,0,12.4,6.2,6.012,6.012,0,0,0,10.58,1.822Z" fill="#fff"/>
          </g>
        </g>
        <g id="Group_41" data-name="Group 41" transform="matrix(0.82, 0.573, -0.573, 0.82, 49.089, 37.112)">
          <g id="Group_40" data-name="Group 40" transform="translate(0 0)">
            <path id="Path_1150" data-name="Path 1150" d="M10.58,1.822h-.007A5.942,5.942,0,0,0,6.194,0,5.95,5.95,0,0,0,1.808,1.822,5.929,5.929,0,0,0,0,6.2,5.943,5.943,0,0,0,1.808,10.58v.014A5.972,5.972,0,0,0,6.194,12.4a5.987,5.987,0,0,0,4.386-1.808A6,6,0,0,0,12.4,6.2,6.012,6.012,0,0,0,10.58,1.822Z" fill="#fff"/>
          </g>
        </g>
        <g id="Group_43" data-name="Group 43" transform="matrix(0.82, 0.573, -0.573, 0.82, 47.98, 0)">
          <g id="Group_42" data-name="Group 42" transform="translate(0 0)">
            <path id="Path_1151" data-name="Path 1151" d="M8.57,0A8.247,8.247,0,0,0,2.5,2.512,8.194,8.194,0,0,0,0,8.59a8.224,8.224,0,0,0,2.5,6.068v.01A8.247,8.247,0,0,0,8.57,17.181a8.313,8.313,0,0,0,6.089-2.512A8.328,8.328,0,0,0,17.181,8.59a8.368,8.368,0,0,0-2.522-6.079h-.01A8.28,8.28,0,0,0,8.57,0Z" fill="#d24e00"/>
          </g>
        </g>
        <g id="Group_45" data-name="Group 45" transform="matrix(0.82, 0.573, -0.573, 0.82, 48.443, 3.254)">
          <g id="Group_44" data-name="Group 44" transform="translate(0 0)">
            <path id="Path_1152" data-name="Path 1152" d="M10.58,1.822h-.007A5.942,5.942,0,0,0,6.194,0,5.95,5.95,0,0,0,1.808,1.822,5.929,5.929,0,0,0,0,6.2,5.943,5.943,0,0,0,1.808,10.58v.014A5.972,5.972,0,0,0,6.194,12.4a5.987,5.987,0,0,0,4.386-1.808A6,6,0,0,0,12.4,6.2,6.012,6.012,0,0,0,10.58,1.822Z" fill="#fff"/>
          </g>
        </g>
      </g>
    </g>
  </g>
</svg>
